<svg width="640" height="360" viewBox="0 0 640 360" xmlns="http://www.w3.org/2000/svg">
  <defs>
    <linearGradient id="grad-faqAccordion" x1="0%" y1="0%" x2="100%" y2="100%">
      <stop offset="0%" style="stop-color:#1a0f0f;stop-opacity:1" />
      <stop offset="100%" style="stop-color:#2e2323;stop-opacity:1" />
    </linearGradient>
    <filter id="glow-faqAccordion">
      <feGaussianBlur stdDeviation="3" result="coloredBlur"/>
      <feMerge>
        <feMergeNode in="coloredBlur"/>
        <feMergeNode in="SourceGraphic"/>
      </feMerge>
    </filter>
  </defs>

  <!-- Background -->
  <rect width="640" height="360" fill="url(#grad-faqAccordion)"/>

  <!-- Grid pattern -->
  <pattern id="grid-faqAccordion" width="40" height="40" patternUnits="userSpaceOnUse">
    <path d="M 40 0 L 0 0 0 40" fill="none" stroke="#ef4444" stroke-opacity="0.08" stroke-width="1"/>
  </pattern>
  <rect width="640" height="360" fill="url(#grid-faqAccordion)"/>

  <!-- Wireframe representation -->
  
        <rect x="200" y="50" width="240" height="24" rx="3" fill="#fca5a5" fill-opacity="0.25"/>
        
          <g transform="translate(120, 100)">
            <rect width="400" height="40" rx="4" fill="#ef4444" fill-opacity="0.1"/>
            <rect x="15" y="15" width="200" height="10" rx="2" fill="#fca5a5" fill-opacity="0.2"/>
            <text x="375" y="26" font-family="system-ui" font-size="14" fill="#fca5a5" fill-opacity="0.3">+</text>
          </g>
        
          <g transform="translate(120, 150)">
            <rect width="400" height="40" rx="4" fill="#ef4444" fill-opacity="0.2"/>
            <rect x="15" y="15" width="200" height="10" rx="2" fill="#fca5a5" fill-opacity="0.2"/>
            <text x="375" y="26" font-family="system-ui" font-size="14" fill="#fca5a5" fill-opacity="0.3">−</text>
          </g>
        
          <g transform="translate(120, 200)">
            <rect width="400" height="40" rx="4" fill="#ef4444" fill-opacity="0.1"/>
            <rect x="15" y="15" width="200" height="10" rx="2" fill="#fca5a5" fill-opacity="0.2"/>
            <text x="375" y="26" font-family="system-ui" font-size="14" fill="#fca5a5" fill-opacity="0.3">+</text>
          </g>
        
          <g transform="translate(120, 250)">
            <rect width="400" height="40" rx="4" fill="#ef4444" fill-opacity="0.1"/>
            <rect x="15" y="15" width="200" height="10" rx="2" fill="#fca5a5" fill-opacity="0.2"/>
            <text x="375" y="26" font-family="system-ui" font-size="14" fill="#fca5a5" fill-opacity="0.3">+</text>
          </g>
        
          <g transform="translate(120, 300)">
            <rect width="400" height="40" rx="4" fill="#ef4444" fill-opacity="0.1"/>
            <rect x="15" y="15" width="200" height="10" rx="2" fill="#fca5a5" fill-opacity="0.2"/>
            <text x="375" y="26" font-family="system-ui" font-size="14" fill="#fca5a5" fill-opacity="0.3">+</text>
          </g>
        
      

  <!-- Category badge -->
  <rect x="20" y="20" width="54" height="28" rx="4" fill="#ef4444" fill-opacity="0.2"/>
  <text x="32" y="39" font-family="system-ui, sans-serif" font-size="12" font-weight="600" fill="#fca5a5">FAQ</text>

  <!-- Module title -->
  <text x="320" y="340" font-family="system-ui, sans-serif" font-size="14" font-weight="500" fill="#fca5a5" text-anchor="middle" fill-opacity="0.7">FAQ Accordion</text>
</svg>