<svg width="640" height="360" viewBox="0 0 640 360" xmlns="http://www.w3.org/2000/svg">
  <defs>
    <linearGradient id="grad-faqSimple" x1="0%" y1="0%" x2="100%" y2="100%">
      <stop offset="0%" style="stop-color:#1a0f0f;stop-opacity:1" />
      <stop offset="100%" style="stop-color:#2e2323;stop-opacity:1" />
    </linearGradient>
    <filter id="glow-faqSimple">
      <feGaussianBlur stdDeviation="3" result="coloredBlur"/>
      <feMerge>
        <feMergeNode in="coloredBlur"/>
        <feMergeNode in="SourceGraphic"/>
      </feMerge>
    </filter>
  </defs>

  <!-- Background -->
  <rect width="640" height="360" fill="url(#grad-faqSimple)"/>

  <!-- Grid pattern -->
  <pattern id="grid-faqSimple" width="40" height="40" patternUnits="userSpaceOnUse">
    <path d="M 40 0 L 0 0 0 40" fill="none" stroke="#ef4444" stroke-opacity="0.08" stroke-width="1"/>
  </pattern>
  <rect width="640" height="360" fill="url(#grid-faqSimple)"/>

  <!-- Wireframe representation -->
  
        <rect x="200" y="60" width="240" height="24" rx="3" fill="#fca5a5" fill-opacity="0.25"/>
        
          <g transform="translate(140, 110)">
            <rect x="0" y="0" width="360" height="40" rx="4" fill="#ef4444" fill-opacity="0.08"/>
            <rect x="20" y="15" width="180" height="10" rx="2" fill="#fca5a5" fill-opacity="0.2"/>
            <circle cx="330" cy="20" r="10" fill="#ef4444" fill-opacity="0.2"/>
          </g>
        
          <g transform="translate(140, 165)">
            <rect x="0" y="0" width="360" height="40" rx="4" fill="#ef4444" fill-opacity="0.08"/>
            <rect x="20" y="15" width="180" height="10" rx="2" fill="#fca5a5" fill-opacity="0.2"/>
            <circle cx="330" cy="20" r="10" fill="#ef4444" fill-opacity="0.2"/>
          </g>
        
          <g transform="translate(140, 220)">
            <rect x="0" y="0" width="360" height="40" rx="4" fill="#ef4444" fill-opacity="0.08"/>
            <rect x="20" y="15" width="180" height="10" rx="2" fill="#fca5a5" fill-opacity="0.2"/>
            <circle cx="330" cy="20" r="10" fill="#ef4444" fill-opacity="0.2"/>
          </g>
        
          <g transform="translate(140, 275)">
            <rect x="0" y="0" width="360" height="40" rx="4" fill="#ef4444" fill-opacity="0.08"/>
            <rect x="20" y="15" width="180" height="10" rx="2" fill="#fca5a5" fill-opacity="0.2"/>
            <circle cx="330" cy="20" r="10" fill="#ef4444" fill-opacity="0.2"/>
          </g>
        
      

  <!-- Category badge -->
  <rect x="20" y="20" width="54" height="28" rx="4" fill="#ef4444" fill-opacity="0.2"/>
  <text x="32" y="39" font-family="system-ui, sans-serif" font-size="12" font-weight="600" fill="#fca5a5">FAQ</text>

  <!-- Module title -->
  <text x="320" y="340" font-family="system-ui, sans-serif" font-size="14" font-weight="500" fill="#fca5a5" text-anchor="middle" fill-opacity="0.7">FAQ Simple</text>
</svg>