<svg width="640" height="360" viewBox="0 0 640 360" xmlns="http://www.w3.org/2000/svg">
  <defs>
    <linearGradient id="grad-logoCloudMarquee" x1="0%" y1="0%" x2="100%" y2="100%">
      <stop offset="0%" style="stop-color:#0f0f1a;stop-opacity:1" />
      <stop offset="100%" style="stop-color:#23232e;stop-opacity:1" />
    </linearGradient>
    <filter id="glow-logoCloudMarquee">
      <feGaussianBlur stdDeviation="3" result="coloredBlur"/>
      <feMerge>
        <feMergeNode in="coloredBlur"/>
        <feMergeNode in="SourceGraphic"/>
      </feMerge>
    </filter>
  </defs>

  <!-- Background -->
  <rect width="640" height="360" fill="url(#grad-logoCloudMarquee)"/>

  <!-- Grid pattern -->
  <pattern id="grid-logoCloudMarquee" width="40" height="40" patternUnits="userSpaceOnUse">
    <path d="M 40 0 L 0 0 0 40" fill="none" stroke="#8b5cf6" stroke-opacity="0.08" stroke-width="1"/>
  </pattern>
  <rect width="640" height="360" fill="url(#grid-logoCloudMarquee)"/>

  <!-- Wireframe representation -->
  
        <rect x="220" y="80" width="200" height="16" rx="2" fill="#c4b5fd" fill-opacity="0.2"/>
        <rect x="40" y="130" width="560" height="60" rx="4" fill="#8b5cf6" fill-opacity="0.1"/>
        
          <rect x="60" y="145" width="60" height="30" rx="3" fill="#8b5cf6" fill-opacity="0.2"/>
        
          <rect x="140" y="145" width="60" height="30" rx="3" fill="#8b5cf6" fill-opacity="0.2"/>
        
          <rect x="220" y="145" width="60" height="30" rx="3" fill="#8b5cf6" fill-opacity="0.2"/>
        
          <rect x="300" y="145" width="60" height="30" rx="3" fill="#8b5cf6" fill-opacity="0.2"/>
        
          <rect x="380" y="145" width="60" height="30" rx="3" fill="#8b5cf6" fill-opacity="0.2"/>
        
          <rect x="460" y="145" width="60" height="30" rx="3" fill="#8b5cf6" fill-opacity="0.2"/>
        
          <rect x="540" y="145" width="60" height="30" rx="3" fill="#8b5cf6" fill-opacity="0.2"/>
        
        <rect x="40" y="210" width="560" height="60" rx="4" fill="#8b5cf6" fill-opacity="0.08"/>
        
          <rect x="80" y="225" width="60" height="30" rx="3" fill="#8b5cf6" fill-opacity="0.15"/>
        
          <rect x="160" y="225" width="60" height="30" rx="3" fill="#8b5cf6" fill-opacity="0.15"/>
        
          <rect x="240" y="225" width="60" height="30" rx="3" fill="#8b5cf6" fill-opacity="0.15"/>
        
          <rect x="320" y="225" width="60" height="30" rx="3" fill="#8b5cf6" fill-opacity="0.15"/>
        
          <rect x="400" y="225" width="60" height="30" rx="3" fill="#8b5cf6" fill-opacity="0.15"/>
        
          <rect x="480" y="225" width="60" height="30" rx="3" fill="#8b5cf6" fill-opacity="0.15"/>
        
          <rect x="560" y="225" width="60" height="30" rx="3" fill="#8b5cf6" fill-opacity="0.15"/>
        
      

  <!-- Category badge -->
  <rect x="20" y="20" width="124" height="28" rx="4" fill="#8b5cf6" fill-opacity="0.2"/>
  <text x="32" y="39" font-family="system-ui, sans-serif" font-size="12" font-weight="600" fill="#c4b5fd">Logo Cloud</text>

  <!-- Module title -->
  <text x="320" y="340" font-family="system-ui, sans-serif" font-size="14" font-weight="500" fill="#c4b5fd" text-anchor="middle" fill-opacity="0.7">Logo Cloud Marquee</text>
</svg>